<svg width="41" height="36" viewBox="0 0 41 36" fill="none" xmlns="http://www.w3.org/2000/svg">
<path d="M29.9856 24.1019C30.8627 23.5029 31.8915 23.1645 32.9529 23.1258C34.0143 23.0871 35.065 23.3498 35.9834 23.8833C36.9018 24.4168 37.6504 25.1995 38.1425 26.1407C38.6346 27.0819 38.8502 28.1432 38.7644 29.2019C36.5147 29.9881 34.1252 30.2941 31.75 30.1C31.7427 27.9749 31.1307 25.8939 29.9856 24.1037C28.9692 22.5096 27.5671 21.1976 25.9091 20.2891C24.251 19.3806 22.3906 18.905 20.5 18.9062C18.6097 18.9053 16.7497 19.381 15.092 20.2895C13.4343 21.198 12.0325 22.5099 11.0163 24.1037M31.7481 30.0981L31.75 30.1562C31.75 30.5781 31.7275 30.9944 31.6806 31.405C28.2782 33.3571 24.4227 34.3813 20.5 34.375C16.4313 34.375 12.6119 33.295 9.31938 31.405C9.27117 30.9711 9.24801 30.5347 9.25 30.0981M9.25 30.0981C6.87556 30.2992 4.48733 29.9944 2.23938 29.2037C2.15379 28.1454 2.36949 27.0844 2.86156 26.1435C3.35362 25.2027 4.10194 24.4202 5.02001 23.8868C5.93807 23.3533 6.98837 23.0906 8.04947 23.129C9.11058 23.1674 10.1391 23.5053 11.0163 24.1037M9.25 30.0981C9.25674 27.9732 9.8718 25.8941 11.0163 24.1037M26.125 7.65625C26.125 9.14809 25.5324 10.5788 24.4775 11.6337C23.4226 12.6886 21.9918 13.2812 20.5 13.2812C19.0082 13.2812 17.5774 12.6886 16.5225 11.6337C15.4676 10.5788 14.875 9.14809 14.875 7.65625C14.875 6.16441 15.4676 4.73367 16.5225 3.67877C17.5774 2.62388 19.0082 2.03125 20.5 2.03125C21.9918 2.03125 23.4226 2.62388 24.4775 3.67877C25.5324 4.73367 26.125 6.16441 26.125 7.65625ZM37.375 13.2812C37.375 13.8353 37.2659 14.3839 37.0539 14.8957C36.8419 15.4075 36.5311 15.8726 36.1394 16.2644C35.7476 16.6561 35.2825 16.9669 34.7707 17.1789C34.2589 17.3909 33.7103 17.5 33.1562 17.5C32.6022 17.5 32.0536 17.3909 31.5418 17.1789C31.03 16.9669 30.5649 16.6561 30.1731 16.2644C29.7814 15.8726 29.4706 15.4075 29.2586 14.8957C29.0466 14.3839 28.9375 13.8353 28.9375 13.2812C28.9375 12.1624 29.382 11.0893 30.1731 10.2981C30.9643 9.50697 32.0374 9.0625 33.1562 9.0625C34.2751 9.0625 35.3482 9.50697 36.1394 10.2981C36.9305 11.0893 37.375 12.1624 37.375 13.2812ZM12.0625 13.2812C12.0625 13.8353 11.9534 14.3839 11.7414 14.8957C11.5294 15.4075 11.2186 15.8726 10.8269 16.2644C10.4351 16.6561 9.97004 16.9669 9.4582 17.1789C8.94636 17.3909 8.39777 17.5 7.84375 17.5C7.28974 17.5 6.74115 17.3909 6.22931 17.1789C5.71746 16.9669 5.25239 16.6561 4.86065 16.2644C4.4689 15.8726 4.15815 15.4075 3.94614 14.8957C3.73412 14.3839 3.625 13.8353 3.625 13.2812C3.625 12.1624 4.06948 11.0893 4.86065 10.2981C5.65181 9.50697 6.72487 9.0625 7.84375 9.0625C8.96263 9.0625 10.0357 9.50697 10.8269 10.2981C11.618 11.0893 12.0625 12.1624 12.0625 13.2812Z" stroke="#272266" stroke-width="2.5" stroke-linecap="round" stroke-linejoin="round"/>
</svg>
