<svg width="41" height="36" viewBox="0 0 41 36" fill="none" xmlns="http://www.w3.org/2000/svg">
<path d="M30.25 29.1C32.6252 29.2941 35.0147 28.9881 37.2644 28.2019C37.3502 27.1432 37.1346 26.0819 36.6425 25.1407C36.1504 24.1995 35.4018 23.4168 34.4834 22.8833C33.565 22.3498 32.5143 22.0871 31.4529 22.1258C30.3915 22.1645 29.3627 22.5029 28.4856 23.1019M30.2481 29.0981C30.25 29.2589 30.2275 29.9944 30.1806 30.405C26.7782 32.3571 22.9227 33.3813 19 33.375C14.9313 33.375 11.1119 32.295 7.81938 30.405C7.77117 29.9711 7.74801 29.5347 7.75 29.0981M30.25 29.1C30.2427 26.9749 29.6307 24.8939 28.4856 23.1037ZM28.4856 23.1037C27.4692 21.5096 26.0671 20.1976 24.4091 19.2891C22.751 18.3806 20.8906 17.905 19 17.9062C17.1097 17.9053 15.2497 18.381 13.592 19.2895C11.9343 20.198 10.5325 21.5099 9.51625 23.1037M9.51625 23.1037C8.63915 22.5053 7.61058 22.1674 6.54947 22.129C5.48837 22.0906 4.43807 22.3533 3.52001 22.8868C2.60194 23.4202 1.85362 24.2027 1.36156 25.1435C0.869492 26.0844 0.653785 27.1454 0.739377 28.2037C2.98733 28.9944 5.37556 29.2992 7.75 29.0981M9.51625 23.1037H28.4856L30.2481 29.0981H7.75M24.625 6.65625C24.625 8.14809 24.0324 9.57883 22.9775 10.6337C21.9226 11.6886 20.4918 12.2812 19 12.2812C17.5082 12.2812 16.0774 11.6886 15.0225 10.6337C13.9676 9.57883 13.375 8.14809 13.375 6.65625C13.375 5.16441 13.9676 3.73367 15.0225 2.67877C16.0774 1.62388 17.5082 1.03125 19 1.03125C20.4918 1.03125 21.9226 1.62388 22.9775 2.67877C24.0324 3.73367 24.625 5.16441 24.625 6.65625ZM35.875 12.2812C35.875 12.8353 35.7659 13.3839 35.5539 13.8957C35.3419 14.4075 35.0311 14.8726 34.6394 15.2644C34.2476 15.6561 33.7825 15.9669 33.2707 16.1789C32.7589 16.3909 32.2103 16.5 31.6562 16.5C31.1022 16.5 30.5536 16.3909 30.0418 16.1789C29.53 15.9669 29.0649 15.6561 28.6731 15.2644C28.2814 14.8726 27.9706 14.4075 27.7586 13.8957C27.5466 13.3839 27.4375 12.8353 27.4375 12.2812C27.4375 11.1624 27.882 10.0893 28.6731 9.29814C29.4643 8.50697 30.5374 8.0625 31.6562 8.0625C32.7751 8.0625 33.8482 8.50697 34.6394 9.29814C35.4305 10.0893 35.875 11.1624 35.875 12.2812ZM10.5625 12.2812C10.5625 12.8353 10.4534 13.3839 10.2414 13.8957C10.0294 14.4075 9.71861 14.8726 9.32686 15.2644C8.93511 15.6561 8.47004 15.9669 7.9582 16.1789C7.44636 16.3909 6.89777 16.5 6.34375 16.5C5.78974 16.5 5.24115 16.3909 4.72931 16.1789C4.21746 15.9669 3.75239 15.6561 3.36065 15.2644C2.9689 14.8726 2.65815 14.4075 2.44614 13.8957C2.23412 13.3839 2.125 12.8353 2.125 12.2812C2.125 11.1624 2.56948 10.0893 3.36065 9.29814C4.15181 8.50697 5.22487 8.0625 6.34375 8.0625C7.46263 8.0625 8.53569 8.50697 9.32686 9.29814C10.118 10.0893 10.5625 11.1624 10.5625 12.2812Z" fill="url(#paint0_linear_0_76)"/>
<path d="M28.4856 23.1019C29.3627 22.5029 30.3915 22.1645 31.4529 22.1258C32.5143 22.0871 33.565 22.3498 34.4834 22.8833C35.4018 23.4168 36.1504 24.1995 36.6425 25.1407C37.1346 26.0819 37.3502 27.1432 37.2644 28.2019C35.0147 28.9881 32.6252 29.2941 30.25 29.1C30.2427 26.9749 29.6307 24.8939 28.4856 23.1037M30.2481 29.0981C30.25 29.2589 30.2275 29.9944 30.1806 30.405C26.7782 32.3571 22.9227 33.3813 19 33.375C14.9313 33.375 11.1119 32.295 7.81938 30.405C7.77117 29.9711 7.74801 29.5347 7.75 29.0981M30.2481 29.0981L28.4856 23.1037M30.2481 29.0981H7.75M7.75 29.0981C5.37556 29.2992 2.98733 28.9944 0.739377 28.2037C0.653785 27.1454 0.869492 26.0844 1.36156 25.1435C1.85362 24.2027 2.60194 23.4202 3.52001 22.8868C4.43807 22.3533 5.48837 22.0906 6.54947 22.129C7.61058 22.1674 8.63915 22.5053 9.51625 23.1037M28.4856 23.1037C27.4692 21.5096 26.0671 20.1976 24.4091 19.2891C22.751 18.3806 20.8906 17.905 19 17.9062C17.1097 17.9053 15.2497 18.381 13.592 19.2895C11.9343 20.198 10.5325 21.5099 9.51625 23.1037M28.4856 23.1037H9.51625M24.625 6.65625C24.625 8.14809 24.0324 9.57883 22.9775 10.6337C21.9226 11.6886 20.4918 12.2812 19 12.2812C17.5082 12.2812 16.0774 11.6886 15.0225 10.6337C13.9676 9.57883 13.375 8.14809 13.375 6.65625C13.375 5.16441 13.9676 3.73367 15.0225 2.67877C16.0774 1.62388 17.5082 1.03125 19 1.03125C20.4918 1.03125 21.9226 1.62388 22.9775 2.67877C24.0324 3.73367 24.625 5.16441 24.625 6.65625ZM35.875 12.2812C35.875 12.8353 35.7659 13.3839 35.5539 13.8957C35.3419 14.4075 35.0311 14.8726 34.6394 15.2644C34.2476 15.6561 33.7825 15.9669 33.2707 16.1789C32.7589 16.3909 32.2103 16.5 31.6562 16.5C31.1022 16.5 30.5536 16.3909 30.0418 16.1789C29.53 15.9669 29.0649 15.6561 28.6731 15.2644C28.2814 14.8726 27.9706 14.4075 27.7586 13.8957C27.5466 13.3839 27.4375 12.8353 27.4375 12.2812C27.4375 11.1624 27.882 10.0893 28.6731 9.29814C29.4643 8.50697 30.5374 8.0625 31.6562 8.0625C32.7751 8.0625 33.8482 8.50697 34.6394 9.29814C35.4305 10.0893 35.875 11.1624 35.875 12.2812ZM10.5625 12.2812C10.5625 12.8353 10.4534 13.3839 10.2414 13.8957C10.0294 14.4075 9.71861 14.8726 9.32686 15.2644C8.93511 15.6561 8.47004 15.9669 7.9582 16.1789C7.44636 16.3909 6.89777 16.5 6.34375 16.5C5.78974 16.5 5.24115 16.3909 4.72931 16.1789C4.21746 15.9669 3.75239 15.6561 3.36065 15.2644C2.9689 14.8726 2.65815 14.4075 2.44614 13.8957C2.23412 13.3839 2.125 12.8353 2.125 12.2812C2.125 11.1624 2.56948 10.0893 3.36065 9.29814C4.15181 8.50697 5.22487 8.0625 6.34375 8.0625C7.46263 8.0625 8.53569 8.50697 9.32686 9.29814C10.118 10.0893 10.5625 11.1624 10.5625 12.2812Z" stroke="url(#paint1_linear_0_76)" stroke-linecap="round" stroke-linejoin="round"/>
<defs>
<linearGradient id="paint0_linear_0_76" x1="5.79909" y1="1.48047" x2="27.1814" y2="36.2864" gradientUnits="userSpaceOnUse">
<stop stop-color="#38309E"/>
<stop offset="1" stop-color="#272266"/>
</linearGradient>
<linearGradient id="paint1_linear_0_76" x1="5.79909" y1="1.48047" x2="27.1814" y2="36.2864" gradientUnits="userSpaceOnUse">
<stop stop-color="#38309E"/>
<stop offset="1" stop-color="#272266"/>
</linearGradient>
</defs>
</svg>
